<?xml version="1.0" encoding="utf-8"?>
<!-- Generator: Adobe Illustrator 16.0.0, SVG Export Plug-In . SVG Version: 6.00 Build 0)  -->
<!DOCTYPE svg PUBLIC "-//W3C//DTD SVG 1.1//EN" "http://www.w3.org/Graphics/SVG/1.1/DTD/svg11.dtd">
<svg version="1.1" id="Layer_1" xmlns="http://www.w3.org/2000/svg" xmlns:xlink="http://www.w3.org/1999/xlink" x="0px" y="0px"
	 width="300px" height="38.1px" viewBox="0 0 300 38.1" enable-background="new 0 0 300 38.1" xml:space="preserve">
<g>
	<g>
		<path fill="#FFFFFF" d="M41.045,0.753c0,0-1.047-0.1-3.015-0.131c-1.965-0.024-4.866-0.044-8.484,0.45
			c-1.8,0.269-3.793,0.62-5.85,1.305c-2.034,0.695-4.218,1.699-5.864,3.447c-1.667,1.706-2.544,4.256-2.283,6.918
			c0.108,1.286,0.639,2.512,1.552,3.404c0.926,0.888,2.239,1.423,3.645,1.566c1.396,0.154,2.922-0.063,4.16-0.703
			c0.61-0.315,1.126-0.768,1.349-1.255c0.225-0.479,0.196-1.005-0.104-1.593c-0.303-0.576-0.79-1.157-1.401-1.662
			c-0.282-0.27-0.618-0.502-0.948-0.742l-0.248-0.182c-0.02-0.023-0.164-0.106-0.243-0.156l-0.561-0.346
			c-1.422-0.859-2.99-1.512-4.657-2c-1.661-0.488-3.417-0.778-5.198-0.85c-1.78-0.076-3.605,0.018-5.373,0.422
			C5.778,9.051,3.99,9.72,2.788,10.945c-0.593,0.605-0.979,1.349-1.01,2.154c-0.039,0.807,0.292,1.65,0.79,2.408
			c0.483,0.771,1.155,1.459,1.873,2.098c0.726,0.635,1.504,1.232,2.336,1.724c1.669,1.016,3.547,1.719,5.486,2.206
			c3.895,0.965,8.044,1.061,12.128,0.627c2.042-0.232,4.084-0.596,6.072-1.15c0.985-0.281,1.975-0.605,2.863-1.056
			c0.214-0.116,0.433-0.237,0.599-0.375c0.082-0.067,0.151-0.138,0.187-0.188c0.027-0.067-0.007,0.011,0.021,0.044
			c0.035,0.01-0.217-0.136-0.431-0.167c-0.225-0.052-0.472-0.087-0.719-0.11c-4.087-0.405-8.063,1.783-10.548,4.937
			c-1.226,1.58-2.127,3.48-2.148,5.385c-0.062,1.904,0.951,3.623,2.583,4.613c1.588,1.055,3.569,1.568,5.55,1.832
			c1.993,0.268,4.046,0.25,6.059,0.17c8.205-0.477,16.271-1.748,24.075-2.889c7.802-1.174,15.354-2.33,22.539-3.289
			c7.18-0.99,13.996-1.771,20.304-2.357c6.307-0.592,12.111-0.977,17.269-1.031c5.154-0.072,9.663,0.088,13.348,0.535
			c3.684,0.438,6.548,1.086,8.42,1.77c0.954,0.285,1.636,0.648,2.108,0.848c0.468,0.211,0.71,0.318,0.71,0.318l-0.095,0.197
			c0,0-0.246-0.092-0.72-0.27c-0.48-0.168-1.165-0.479-2.125-0.697c-1.875-0.564-4.724-1.064-8.379-1.301
			c-3.654-0.24-8.113-0.273-13.218,0.008c-5.105,0.287-10.858,0.777-17.118,1.516c-6.262,0.736-13.028,1.684-20.186,2.715
			c-7.156,1.055-14.702,2.186-22.535,3.273c-3.917,0.537-7.902,1.066-11.953,1.539c-4.037,0.457-8.188,0.898-12.352,1.031
			c-2.127,0.039-4.255,0.006-6.402-0.328c-2.127-0.34-4.311-0.924-6.214-2.24c-0.933-0.658-1.807-1.504-2.348-2.58
			c-0.557-1.059-0.788-2.27-0.727-3.43c0.121-2.344,1.24-4.404,2.632-6.088c1.413-1.688,3.184-3.047,5.171-3.958
			c0.991-0.466,2.046-0.769,3.13-0.964l0.831-0.109c0.269-0.021,0.526-0.02,0.792-0.031c0.567-0.025,1.079,0.017,1.631,0.068
			c0.273,0.028,0.549,0.066,0.833,0.137c0.278,0.1,0.593,0.096,0.926,0.554c0.168,0.259,0.072,0.633-0.046,0.779
			c-0.113,0.167-0.236,0.277-0.357,0.375c-0.243,0.193-0.488,0.322-0.735,0.453c-0.987,0.486-2.002,0.799-3.022,1.08
			c-2.042,0.545-4.117,0.891-6.196,1.105c-4.15,0.42-8.347,0.35-12.379-0.541c-3.998-0.91-7.922-2.754-10.488-6.129
			C0.991,15.305,0.496,14.253,0.5,13.08C0.49,11.91,1.038,10.797,1.771,10c1.5-1.617,3.47-2.379,5.371-2.908
			C11,6.109,14.966,6.253,18.608,7.236c1.817,0.489,3.569,1.232,5.166,2.182l0.561,0.344c0.108,0.07,0.157,0.089,0.31,0.2
			l0.285,0.204c0.378,0.273,0.758,0.533,1.107,0.861c0.724,0.596,1.38,1.35,1.857,2.283c0.488,0.914,0.622,2.244,0.09,3.278
			c-0.508,1.034-1.366,1.673-2.2,2.106c-1.702,0.846-3.512,1.053-5.244,0.86c-1.727-0.199-3.426-0.907-4.671-2.146
			c-1.239-1.251-1.885-2.932-1.983-4.521c-0.281-3.105,0.937-6.152,2.933-8.055c1.978-1.944,4.369-2.908,6.528-3.568
			c2.186-0.645,4.246-0.938,6.1-1.096c3.717-0.297,6.631-0.129,8.606,0.021c1.976,0.176,3.018,0.35,3.018,0.35L41.045,0.753z"/>
	</g>
	<g>
		<path fill="#FFFFFF" d="M258.736,0.535c0,0,1.045-0.175,3.02-0.35c1.974-0.15,4.891-0.318,8.607-0.021
			c1.855,0.157,3.915,0.451,6.099,1.096c2.16,0.658,4.551,1.623,6.528,3.566c1.999,1.901,3.213,4.951,2.935,8.057
			c-0.096,1.588-0.745,3.268-1.983,4.52c-1.244,1.24-2.944,1.948-4.67,2.148c-1.731,0.193-3.541-0.013-5.245-0.861
			c-0.832-0.434-1.69-1.071-2.199-2.104c-0.534-1.035-0.399-2.364,0.09-3.278c0.478-0.933,1.135-1.688,1.858-2.283
			c0.349-0.326,0.729-0.588,1.107-0.861l0.282-0.203c0.154-0.112,0.205-0.129,0.311-0.199l0.562-0.344
			c1.597-0.949,3.348-1.693,5.165-2.184c3.643-0.982,7.608-1.127,11.465-0.145c1.903,0.529,3.873,1.292,5.372,2.909
			c0.733,0.796,1.281,1.909,1.271,3.081c0.004,1.172-0.491,2.224-1.1,3.083c-2.562,3.375-6.487,5.22-10.484,6.13
			c-4.034,0.891-8.229,0.961-12.38,0.541c-2.078-0.215-4.153-0.561-6.194-1.105c-1.022-0.281-2.036-0.596-3.024-1.082
			c-0.248-0.131-0.491-0.26-0.733-0.451c-0.121-0.1-0.243-0.208-0.358-0.375c-0.119-0.146-0.215-0.521-0.047-0.779
			c0.335-0.457,0.649-0.453,0.926-0.552c0.285-0.07,0.56-0.11,0.833-0.138c0.552-0.051,1.064-0.093,1.63-0.067
			c0.266,0.012,0.522,0.01,0.792,0.031l0.83,0.109c1.082,0.196,2.138,0.498,3.13,0.963c1.986,0.912,3.759,2.271,5.171,3.958
			c1.393,1.684,2.51,3.744,2.633,6.09c0.062,1.158-0.172,2.369-0.728,3.428c-0.542,1.076-1.416,1.924-2.35,2.58
			c-1.903,1.314-4.087,1.9-6.217,2.24c-2.145,0.334-4.273,0.365-6.399,0.328c-4.162-0.133-8.315-0.574-12.352-1.033
			c-4.053-0.471-8.038-1.002-11.955-1.537c-7.829-1.09-15.377-2.219-22.532-3.273c-7.158-1.031-13.925-1.979-20.186-2.715
			c-6.261-0.738-12.013-1.229-17.117-1.516c-5.107-0.279-9.564-0.248-13.221-0.01c-3.654,0.238-6.503,0.738-8.378,1.303
			c-0.96,0.219-1.646,0.529-2.126,0.697c-0.476,0.178-0.72,0.271-0.72,0.271L156.56,30c0,0,0.241-0.109,0.711-0.318
			c0.471-0.201,1.152-0.562,2.106-0.848c1.874-0.684,4.738-1.334,8.421-1.771c3.686-0.447,8.191-0.605,13.347-0.535
			c5.16,0.055,10.965,0.441,17.269,1.033c6.308,0.584,13.122,1.365,20.304,2.357c7.184,0.957,14.735,2.113,22.538,3.289
			c7.802,1.139,15.87,2.41,24.075,2.887c2.015,0.082,4.063,0.098,6.057-0.168c1.984-0.266,3.962-0.777,5.553-1.832
			c1.631-0.99,2.646-2.709,2.582-4.613c-0.02-1.906-0.92-3.805-2.146-5.385c-2.486-3.154-6.462-5.342-10.549-4.937
			c-0.25,0.023-0.495,0.058-0.72,0.11c-0.213,0.031-0.466,0.177-0.429,0.167c0.023-0.033-0.01-0.111,0.02-0.045
			c0.035,0.05,0.103,0.12,0.185,0.188c0.168,0.138,0.385,0.259,0.599,0.375c0.888,0.45,1.88,0.774,2.864,1.055
			c1.987,0.555,4.028,0.92,6.072,1.152c4.083,0.434,8.232,0.338,12.126-0.629c1.94-0.486,3.818-1.189,5.487-2.205
			c0.83-0.492,1.61-1.09,2.336-1.723c0.716-0.64,1.388-1.327,1.874-2.1c0.497-0.758,0.826-1.602,0.787-2.408
			c-0.029-0.805-0.417-1.548-1.01-2.154c-1.201-1.225-2.989-1.894-4.734-2.299c-1.767-0.402-3.594-0.498-5.372-0.42
			c-1.784,0.07-3.539,0.36-5.2,0.848c-1.667,0.489-3.234,1.143-4.658,2l-0.56,0.347c-0.078,0.051-0.224,0.132-0.241,0.157
			l-0.248,0.18c-0.33,0.241-0.667,0.474-0.947,0.743c-0.612,0.505-1.099,1.086-1.402,1.663c-0.299,0.586-0.327,1.112-0.104,1.593
			c0.223,0.487,0.737,0.939,1.35,1.255c1.238,0.639,2.765,0.855,4.161,0.702c1.403-0.146,2.718-0.679,3.642-1.566
			c0.915-0.893,1.447-2.119,1.553-3.405c0.261-2.66-0.614-5.21-2.281-6.916c-1.647-1.75-3.83-2.753-5.863-3.447
			c-2.06-0.686-4.05-1.037-5.852-1.307c-3.619-0.493-6.519-0.476-8.484-0.449c-1.967,0.031-3.014,0.131-3.014,0.131L258.736,0.535z"
			/>
	</g>
</g>
</svg>
